<?xml version="1.0" encoding="UTF-8" standalone="no"?>
<!-- Created with Inkscape (http://www.inkscape.org/) -->

<svg
   xmlns:dc="http://purl.org/dc/elements/1.1/"
   xmlns:cc="http://creativecommons.org/ns#"
   xmlns:rdf="http://www.w3.org/1999/02/22-rdf-syntax-ns#"
   xmlns:svg="http://www.w3.org/2000/svg"
   xmlns="http://www.w3.org/2000/svg"
   xmlns:sodipodi="http://sodipodi.sourceforge.net/DTD/sodipodi-0.dtd"
   xmlns:inkscape="http://www.inkscape.org/namespaces/inkscape"
   width="744.09448819"
   height="1052.3622047"
   id="svg2"
   version="1.1"
   inkscape:version="0.48.3.1 r9886"
   sodipodi:docname="layers.svg">
  <defs
     id="defs4" />
  <sodipodi:namedview
     id="base"
     pagecolor="#ffffff"
     bordercolor="#666666"
     borderopacity="1.0"
     inkscape:pageopacity="0.0"
     inkscape:pageshadow="2"
     inkscape:zoom="0.98994949"
     inkscape:cx="677.10811"
     inkscape:cy="317.6737"
     inkscape:document-units="px"
     inkscape:current-layer="layer1"
     showgrid="false"
     inkscape:window-width="1920"
     inkscape:window-height="1000"
     inkscape:window-x="0"
     inkscape:window-y="0"
     inkscape:window-maximized="1"
     showguides="true"
     inkscape:guide-bbox="true" />
  <metadata
     id="metadata7">
    <rdf:RDF>
      <cc:Work
         rdf:about="">
        <dc:format>image/svg+xml</dc:format>
        <dc:type
           rdf:resource="http://purl.org/dc/dcmitype/StillImage" />
        <dc:title></dc:title>
      </cc:Work>
    </rdf:RDF>
  </metadata>
  <g
     inkscape:label="Layer 1"
     inkscape:groupmode="layer"
     id="layer1">
    <path
       style="fill:#939dac;fill-opacity:1;stroke:#000000;stroke-width:3;stroke-linejoin:miter;stroke-miterlimit:4;stroke-opacity:1;stroke-dasharray:none"
       d="m 132.28125,682.375 0,12.84375 -39.5625,0 0,68 39.5625,0 0,-12.84375 17.15625,0 0,12.84375 100.84375,0 0,-10.84375 17.15625,0 0,10.84375 39.5625,0 0,-68 -39.5625,0 0,-10.84375 -17.15625,0 0,10.84375 -100.84375,0 0,-12.84375 -17.15625,0 z"
       id="path2993"
       inkscape:connector-curvature="0" />
    <path
       inkscape:connector-curvature="0"
       id="path3003"
       d="m 132.28125,754.375 0,12.84375 -39.5625,0 0,68.5625 214.28125,0 0,-68.5625 -39.5625,0 0,-10.84375 -17.15625,0 0,10.84375 -100.84375,0 0,-12.84375 -17.15625,0 z"
       style="fill:#0088aa;fill-opacity:1;stroke:#000000;stroke-width:3;stroke-linejoin:miter;stroke-miterlimit:4;stroke-opacity:1;stroke-dasharray:none" />
    <path
       sodipodi:nodetypes="ccccccccccccc"
       style="fill:#d4aa00;fill-opacity:1;stroke:#000000;stroke-width:3;stroke-linejoin:miter;stroke-miterlimit:4;stroke-opacity:1;stroke-dasharray:none"
       d="m 92.71875,623.21875 0,68 39.5625,0 0,-12.84375 17.15625,0 0,12.84375 100.84375,0 0,-10.84375 17.15625,0 0,10.84375 39.5625,0 0,-68 c -91.52802,-0.0841 -146.36414,0 -214.28125,0 z"
       id="path3008"
       inkscape:connector-curvature="0" />
    <path
       style="fill:#939dac;fill-opacity:1;stroke:#000000;stroke-width:3;stroke-linejoin:miter;stroke-miterlimit:4;stroke-opacity:1;stroke-dasharray:none"
       d="m 708.28125,682.375 0,12.84375 -39.5625,0 0,67.99995 39.5625,0 0,-12.8437 17.15625,0 0,12.8437 100.84375,0 0,-10.8437 17.15625,0 0,10.8437 39.5625,0 0,-67.99995 -39.5625,0 0,-10.84375 -17.15625,0 0,10.84375 -100.84375,0 0,-12.84375 -17.15625,0 z"
       id="path3018"
       inkscape:connector-curvature="0" />
    <path
       inkscape:connector-curvature="0"
       id="path3020"
       d="m 708.28125,756.375 0,12.8437 -39.5625,0 0,68.5625 214.28125,0 0,-68.5625 -39.5625,0 0,-10.8437 -17.15625,0 0,10.8437 -100.84375,0 0,-12.8437 -17.15625,0 z"
       style="fill:#0088aa;fill-opacity:1;stroke:#000000;stroke-width:3;stroke-linejoin:miter;stroke-miterlimit:4;stroke-opacity:1;stroke-dasharray:none" />
    <path
       style="fill:#ff6600;fill-opacity:1;stroke:#000000;stroke-width:3;stroke-linejoin:miter;stroke-miterlimit:4;stroke-opacity:1;stroke-dasharray:none"
       d="m 725.4375,623.1875 0,12.84375 -17.15625,0 0,-12.8125 c -13.0158,0.005 -25.8927,0 -39.5625,0 l 0,67.96875 c 13.6698,0 26.5467,-0.005 39.5625,0 l 0,-12.8125 17.15625,0 0,12.84375 c 13.6409,0.006 27.3365,-0.004 41.5625,0 17.1914,0.005 39.71787,-0.0269 59.28125,-0.0312 l 0,-10.8125 17.15625,0 0,10.8125 c 13.72092,-0.006 23.95441,0.0143 39.5625,0 l 0,-67.96875 c -15.60809,-0.0143 -25.84158,0.006 -39.5625,0 l 0,10.8125 -17.15625,0 0,-10.8125 C 806.71787,623.21442 784.1914,623.18213 767,623.1875 l -41.5625,0 z"
       id="path3066"
       inkscape:connector-curvature="0" />
    <path
       style="fill:#d4aa00;fill-opacity:1;stroke:#000000;stroke-width:3;stroke-linejoin:miter;stroke-miterlimit:4;stroke-opacity:1;stroke-dasharray:none"
       d="m 708.28125,631.7812 0,-12.8437 -39.5625,0 0,-68.5625 214.28125,0 0,68.5625 -39.5625,0 0,10.8437 -17.15625,0 0,-10.8437 -100.84375,0 0,12.8437 -17.15625,0 z"
       id="path3029"
       inkscape:connector-curvature="0" />
    <flowRoot
       xml:space="preserve"
       id="flowRoot3031"
       style="font-size:28px;font-style:normal;font-variant:normal;font-weight:normal;font-stretch:normal;line-height:125%;letter-spacing:0px;word-spacing:0px;fill:#000000;fill-opacity:1;stroke:none;font-family:Sans;-inkscape-font-specification:anorexia"
       transform="translate(34.371375,-2.5564513)"><flowRegion
         id="flowRegion3033"><rect
           id="rect3035"
           width="171.42859"
           height="40.714314"
           x="87.14286"
           y="708.07648"
           style="font-size:28px;font-style:normal;font-variant:normal;font-weight:normal;font-stretch:normal;font-family:Sans;-inkscape-font-specification:anorexia" /></flowRegion><flowPara
         id="flowPara3037"
         style="font-style:normal;font-variant:normal;font-weight:normal;font-stretch:normal;font-family:URW Bookman L;-inkscape-font-specification:URW Bookman L">Middleware</flowPara></flowRoot>    <flowRoot
       xml:space="preserve"
       id="flowRoot3039"
       style="fill:black;stroke:none;stroke-opacity:1;stroke-width:1px;stroke-linejoin:miter;stroke-linecap:butt;fill-opacity:1;font-family:Sans;font-style:normal;font-weight:normal;font-size:16px;line-height:125%;letter-spacing:0px;word-spacing:0px"><flowRegion
         id="flowRegion3041"><rect
           id="rect3043"
           width="153.57143"
           height="17.857143"
           x="32.142857"
           y="699.50507" /></flowRegion><flowPara
         id="flowPara3045" /></flowRoot>    <flowRoot
       transform="translate(92.000188,69.346799)"
       style="font-size:28px;font-style:normal;font-variant:normal;font-weight:normal;font-stretch:normal;line-height:125%;letter-spacing:0px;word-spacing:0px;fill:#000000;fill-opacity:1;stroke:none;font-family:Sans;-inkscape-font-specification:anorexia"
       id="flowRoot3047"
       xml:space="preserve"><flowRegion
         id="flowRegion3049"><rect
           style="font-size:28px;font-style:normal;font-variant:normal;font-weight:normal;font-stretch:normal;font-family:Sans;-inkscape-font-specification:anorexia"
           y="708.07648"
           x="87.14286"
           height="34.285725"
           width="45.000011"
           id="rect3051" /></flowRegion><flowPara
         style="font-style:normal;font-variant:normal;font-weight:normal;font-stretch:normal;font-family:URW Bookman L;-inkscape-font-specification:URW Bookman L"
         id="flowPara3053">OS</flowPara></flowRoot>    <flowRoot
       transform="translate(36.076531,-71.219265)"
       style="font-size:28px;font-style:normal;font-variant:normal;font-weight:normal;font-stretch:normal;line-height:125%;letter-spacing:0px;word-spacing:0px;fill:#000000;fill-opacity:1;stroke:none;font-family:Sans;-inkscape-font-specification:anorexia"
       id="flowRoot3055"
       xml:space="preserve"><flowRegion
         id="flowRegion3057"><rect
           style="font-size:28px;font-style:normal;font-variant:normal;font-weight:normal;font-stretch:normal;font-family:Sans;-inkscape-font-specification:anorexia"
           y="708.07648"
           x="87.14286"
           height="40.714314"
           width="171.42859"
           id="rect3059" /></flowRegion><flowPara
         style="font-style:normal;font-variant:normal;font-weight:normal;font-stretch:normal;font-family:URW Bookman L;-inkscape-font-specification:URW Bookman L"
         id="flowPara3061">Application</flowPara></flowRoot>    <flowRoot
       xml:space="preserve"
       id="flowRoot3071"
       style="font-size:28px;font-style:normal;font-variant:normal;font-weight:normal;font-stretch:normal;line-height:125%;letter-spacing:0px;word-spacing:0px;fill:#000000;fill-opacity:1;stroke:none;font-family:Sans;-inkscape-font-specification:anorexia"
       transform="translate(612.07653,-137.34123)"><flowRegion
         id="flowRegion3073"><rect
           id="rect3075"
           width="171.42859"
           height="40.714314"
           x="87.14286"
           y="708.07648"
           style="font-size:28px;font-style:normal;font-variant:normal;font-weight:normal;font-stretch:normal;font-family:Sans;-inkscape-font-specification:anorexia" /></flowRegion><flowPara
         id="flowPara3077"
         style="font-style:normal;font-variant:normal;font-weight:normal;font-stretch:normal;font-family:URW Bookman L;-inkscape-font-specification:URW Bookman L">Application</flowPara></flowRoot>    <flowRoot
       transform="translate(610.37137,-2.5564763)"
       style="font-size:28px;font-style:normal;font-variant:normal;font-weight:normal;font-stretch:normal;line-height:125%;letter-spacing:0px;word-spacing:0px;fill:#000000;fill-opacity:1;stroke:none;font-family:Sans;-inkscape-font-specification:anorexia"
       id="flowRoot3079"
       xml:space="preserve"><flowRegion
         id="flowRegion3081"><rect
           style="font-size:28px;font-style:normal;font-variant:normal;font-weight:normal;font-stretch:normal;font-family:Sans;-inkscape-font-specification:anorexia"
           y="708.07648"
           x="87.14286"
           height="40.714314"
           width="171.42859"
           id="rect3083" /></flowRegion><flowPara
         style="font-style:normal;font-variant:normal;font-weight:normal;font-stretch:normal;font-family:URW Bookman L;-inkscape-font-specification:URW Bookman L"
         id="flowPara3085">Middleware</flowPara></flowRoot>    <flowRoot
       xml:space="preserve"
       id="flowRoot3087"
       style="font-size:28px;font-style:normal;font-variant:normal;font-weight:normal;font-stretch:normal;line-height:125%;letter-spacing:0px;word-spacing:0px;fill:#000000;fill-opacity:1;stroke:none;font-family:Sans;-inkscape-font-specification:anorexia"
       transform="translate(668.00019,71.346774)"><flowRegion
         id="flowRegion3089"><rect
           id="rect3091"
           width="45.000011"
           height="34.285725"
           x="87.14286"
           y="708.07648"
           style="font-size:28px;font-style:normal;font-variant:normal;font-weight:normal;font-stretch:normal;font-family:Sans;-inkscape-font-specification:anorexia" /></flowRegion><flowPara
         id="flowPara3093"
         style="font-style:normal;font-variant:normal;font-weight:normal;font-stretch:normal;font-family:URW Bookman L;-inkscape-font-specification:URW Bookman L">OS</flowPara></flowRoot>    <flowRoot
       xml:space="preserve"
       id="flowRoot3095"
       style="font-size:28px;font-style:normal;font-variant:normal;font-weight:normal;font-stretch:normal;line-height:125%;letter-spacing:0px;word-spacing:0px;fill:#000000;fill-opacity:1;stroke:none;font-family:Sans;-inkscape-font-specification:anorexia"
       transform="translate(620.07653,-71.219265)"><flowRegion
         id="flowRegion3097"><rect
           id="rect3099"
           width="171.42859"
           height="40.714314"
           x="87.14286"
           y="708.07648"
           style="font-size:28px;font-style:normal;font-variant:normal;font-weight:normal;font-stretch:normal;font-family:Sans;-inkscape-font-specification:anorexia" /></flowRegion><flowPara
         id="flowPara3101"
         style="font-style:normal;font-variant:normal;font-weight:normal;font-stretch:normal;font-family:URW Bookman L;-inkscape-font-specification:URW Bookman L">IoC Layer</flowPara></flowRoot>    <path
       id="path3197"
       d="m 370.89286,675.57143 -11.625,20.2188 c -12.01815,0 -23.86791,0 -36.46875,0 l 0,68 39.5625,0 0,-12.8438 17.15625,0 0,12.8438 100.84375,0 0,-10.8438 17.15625,0 0,10.8438 39.5625,0 0,-68 c -14.41221,-0.013 -23.74422,0.01 -36.53125,0 l -11.65625,-20.2188 -11.625,20.1875 c -33.26782,-0.01 -66.42616,-0.012 -94.71875,0 l -11.65625,-20.1875 z"
       style="fill:#00aa44;fill-opacity:1;stroke:#000000;stroke-width:3;stroke-linejoin:miter;stroke-miterlimit:4;stroke-opacity:1;stroke-dasharray:none"
       inkscape:connector-curvature="0" />
    <path
       style="fill:#0088aa;fill-opacity:1;stroke:#000000;stroke-width:3;stroke-linejoin:miter;stroke-miterlimit:4;stroke-opacity:1;stroke-dasharray:none"
       d="m 362.28125,754.375 0,12.84375 -39.5625,0 0,68.5625 214.28125,0 0,-68.5625 -39.5625,0 0,-10.84375 -17.15625,0 0,10.84375 -100.84375,0 0,-12.84375 -17.15625,0 z"
       id="path3105"
       inkscape:connector-curvature="0" />
    <flowRoot
       transform="translate(264.37138,-2.5564513)"
       style="font-size:28px;font-style:normal;font-variant:normal;font-weight:normal;font-stretch:normal;line-height:125%;letter-spacing:0px;word-spacing:0px;fill:#000000;fill-opacity:1;stroke:none;font-family:Sans;-inkscape-font-specification:anorexia"
       id="flowRoot3111"
       xml:space="preserve"><flowRegion
         id="flowRegion3113"><rect
           style="font-size:28px;font-style:normal;font-variant:normal;font-weight:normal;font-stretch:normal;font-family:Sans;-inkscape-font-specification:anorexia"
           y="708.07648"
           x="87.14286"
           height="40.714314"
           width="171.42859"
           id="rect3115" /></flowRegion><flowPara
         style="font-style:normal;font-variant:normal;font-weight:normal;font-stretch:normal;font-family:URW Bookman L;-inkscape-font-specification:URW Bookman L"
         id="flowPara3117">Middleware</flowPara></flowRoot>    <flowRoot
       xml:space="preserve"
       id="flowRoot3119"
       style="font-size:28px;font-style:normal;font-variant:normal;font-weight:normal;font-stretch:normal;line-height:125%;letter-spacing:0px;word-spacing:0px;fill:#000000;fill-opacity:1;stroke:none;font-family:Sans;-inkscape-font-specification:anorexia"
       transform="translate(322.00019,69.346799)"><flowRegion
         id="flowRegion3121"><rect
           id="rect3123"
           width="45.000011"
           height="34.285725"
           x="87.14286"
           y="708.07648"
           style="font-size:28px;font-style:normal;font-variant:normal;font-weight:normal;font-stretch:normal;font-family:Sans;-inkscape-font-specification:anorexia" /></flowRegion><flowPara
         id="flowPara3125"
         style="font-style:normal;font-variant:normal;font-weight:normal;font-stretch:normal;font-family:URW Bookman L;-inkscape-font-specification:URW Bookman L">OS</flowPara></flowRoot>    <path
       inkscape:connector-curvature="0"
       id="path3144"
       d="m 932.28125,756.375 0,12.84375 -39.5625,0 0,68.5625 214.28125,0 0,-68.5625 -39.5625,0 0,-10.84375 -17.1563,0 0,10.84375 -100.8437,0 0,-12.84375 -17.15625,0 z"
       style="fill:#0088aa;fill-opacity:1;stroke:#000000;stroke-width:3;stroke-linejoin:miter;stroke-miterlimit:4;stroke-opacity:1;stroke-dasharray:none" />
    <path
       inkscape:connector-curvature="0"
       style="fill:#00aa44;fill-opacity:1;stroke:#000000;stroke-width:3;stroke-linejoin:miter;stroke-miterlimit:4;stroke-opacity:1;stroke-dasharray:none"
       d="m 941.1454,678.09681 -11.87754,17.69342 c -12.01815,0 -23.86791,0 -36.46875,0 l 0,68 39.5625,0 0,-12.8438 17.15625,0 0,12.8438 100.84374,0 0,-10.8438 17.1563,0 0,10.8438 39.5625,0 0,-68 c -14.4122,-0.013 -23.7443,0.01 -36.5313,0 l -11.4037,-16.9358 -11.8775,16.9045 c -33.2679,-0.01 -66.4262,-0.012 -94.71879,0 z"
       id="path3199"
       sodipodi:nodetypes="ccccccccccccccccccc" />
    <flowRoot
       xml:space="preserve"
       id="flowRoot3146"
       style="font-size:28px;font-style:normal;font-variant:normal;font-weight:normal;font-stretch:normal;line-height:125%;letter-spacing:0px;word-spacing:0px;fill:#000000;fill-opacity:1;stroke:none;font-family:Sans;-inkscape-font-specification:anorexia"
       transform="translate(834.37138,-2.5564513)"><flowRegion
         id="flowRegion3148"><rect
           id="rect3150"
           width="171.42859"
           height="40.714314"
           x="87.14286"
           y="708.07648"
           style="font-size:28px;font-style:normal;font-variant:normal;font-weight:normal;font-stretch:normal;font-family:Sans;-inkscape-font-specification:anorexia" /></flowRegion><flowPara
         id="flowPara3152"
         style="font-style:normal;font-variant:normal;font-weight:normal;font-stretch:normal;font-family:URW Bookman L;-inkscape-font-specification:URW Bookman L">Middleware</flowPara></flowRoot>    <flowRoot
       transform="translate(892.00019,71.346799)"
       style="font-size:28px;font-style:normal;font-variant:normal;font-weight:normal;font-stretch:normal;line-height:125%;letter-spacing:0px;word-spacing:0px;fill:#000000;fill-opacity:1;stroke:none;font-family:Sans;-inkscape-font-specification:anorexia"
       id="flowRoot3154"
       xml:space="preserve"><flowRegion
         id="flowRegion3156"><rect
           style="font-size:28px;font-style:normal;font-variant:normal;font-weight:normal;font-stretch:normal;font-family:Sans;-inkscape-font-specification:anorexia"
           y="708.07648"
           x="87.14286"
           height="34.285725"
           width="45.000011"
           id="rect3158" /></flowRegion><flowPara
         style="font-style:normal;font-variant:normal;font-weight:normal;font-stretch:normal;font-family:URW Bookman L;-inkscape-font-specification:URW Bookman L"
         id="flowPara3160">OS</flowPara></flowRoot>    <path
       inkscape:connector-curvature="0"
       id="path3162"
       d="m 932.28125,631.7812 0,-12.8437 -39.5625,0 0,-68.5625 214.28125,0 0,68.5625 -39.5625,0 0.2525,12.86401 -17.1563,-0.12627 -0.2525,-12.73774 -100.8437,0 0,12.8437 z"
       style="fill:#d4aa00;fill-opacity:1;stroke:#000000;stroke-width:3;stroke-linejoin:miter;stroke-miterlimit:4;stroke-opacity:1;stroke-dasharray:none"
       sodipodi:nodetypes="ccccccccccccc" />
    <flowRoot
       transform="translate(834.07653,-137.34123)"
       style="font-size:28px;font-style:normal;font-variant:normal;font-weight:normal;font-stretch:normal;line-height:125%;letter-spacing:0px;word-spacing:0px;fill:#000000;fill-opacity:1;stroke:none;font-family:Sans;-inkscape-font-specification:anorexia"
       id="flowRoot3164"
       xml:space="preserve"><flowRegion
         id="flowRegion3166"><rect
           style="font-size:28px;font-style:normal;font-variant:normal;font-weight:normal;font-stretch:normal;font-family:Sans;-inkscape-font-specification:anorexia"
           y="708.07648"
           x="87.14286"
           height="40.714314"
           width="171.42859"
           id="rect3168" /></flowRegion><flowPara
         style="font-style:normal;font-variant:normal;font-weight:normal;font-stretch:normal;font-family:URW Bookman L;-inkscape-font-specification:URW Bookman L"
         id="flowPara3170">Application</flowPara></flowRoot>    <path
       style="fill:#0088aa;fill-opacity:1;stroke:#000000;stroke-width:3;stroke-linejoin:miter;stroke-miterlimit:4;stroke-opacity:1;stroke-dasharray:none"
       d="m 132.28125,754.375 0,12.84375 -39.5625,0 0,68.5625 214.28125,0 0,-68.5625 -39.5625,0 0,-10.84375 -17.15625,0 0,10.84375 -100.84375,0 0,-12.84375 -17.15625,0 z"
       id="path3179"
       inkscape:connector-curvature="0" />
    <path
       style="fill:#ff6600;fill-opacity:1;stroke:#000000;stroke-width:3;stroke-linejoin:miter;stroke-miterlimit:4;stroke-opacity:1;stroke-dasharray:none"
       d="m 1047.5056,690.90561 11.5625,-20.0313 11.5,20 c 12.0585,-0.004 23.9498,0 36.5938,0 l 0,-68.00001 -39.5625,0 0,12.84381 -17.1563,0 0,-12.84381 -100.84372,0 0,13.11665 -17.1562,0 0,-13.11665 -39.5625,0 0,68.00001 c 14.4615,0.0133 23.8303,-0.006 36.6562,0 l 11.5313,-20 11.5312,20.0313 c 33.3432,0.006 66.55762,0.0122 94.90622,0 z"
       id="path3190"
       inkscape:connector-curvature="0"
       sodipodi:nodetypes="ccccccccccccccccccc" />
    <path
       style="fill:#333333;fill-opacity:1;stroke:#000000;stroke-width:3;stroke-linejoin:miter;stroke-miterlimit:4;stroke-opacity:1;stroke-dasharray:none"
       d="m 67.21875,623.1875 0,191.875 -10.53125,0 12.25,21.21875 12.25,-21.21875 -10.5625,0 0,-191.875 -3.40625,0 z"
       id="path3194"
       inkscape:connector-curvature="0" />
    <flowRoot
       transform="translate(847.38398,-72.029865)"
       style="font-size:28px;font-style:normal;font-variant:normal;font-weight:normal;font-stretch:normal;line-height:125%;letter-spacing:0px;word-spacing:0px;fill:#000000;fill-opacity:1;stroke:none;font-family:Sans;-inkscape-font-specification:anorexia"
       id="flowRoot3203"
       xml:space="preserve"><flowRegion
         id="flowRegion3205"><rect
           style="font-size:28px;font-style:normal;font-variant:normal;font-weight:normal;font-stretch:normal;font-family:Sans;-inkscape-font-specification:anorexia"
           y="708.07648"
           x="87.14286"
           height="40.714314"
           width="171.42859"
           id="rect3207" /></flowRegion><flowPara
         style="font-style:normal;font-variant:normal;font-weight:normal;font-stretch:normal;font-family:URW Bookman L;-inkscape-font-specification:URW Bookman L"
         id="flowPara3209">IoC Layer</flowPara></flowRoot>    <flowRoot
       xml:space="preserve"
       id="flowRoot3211"
       style="font-size:48px;font-style:normal;font-weight:normal;line-height:125%;letter-spacing:0px;word-spacing:0px;fill:#000000;fill-opacity:1;stroke:none;font-family:Sans"
       transform="translate(71.45536,44.512352)"><flowRegion
         id="flowRegion3213"><rect
           id="rect3215"
           width="160.61426"
           height="84.852814"
           x="344.46201"
           y="582.64124"
           style="font-size:48px" /></flowRegion><flowPara
         id="flowPara3217"
         style="font-size:48px;font-weight:bold;-inkscape-font-specification:Sans Bold">?</flowPara></flowRoot>    <flowRoot
       transform="translate(92.000188,69.346799)"
       style="font-size:28px;font-style:normal;font-variant:normal;font-weight:normal;font-stretch:normal;line-height:125%;letter-spacing:0px;word-spacing:0px;fill:#000000;fill-opacity:1;stroke:none;font-family:Sans;-inkscape-font-specification:anorexia"
       id="flowRoot3219"
       xml:space="preserve"><flowRegion
         id="flowRegion3221"><rect
           style="font-size:28px;font-style:normal;font-variant:normal;font-weight:normal;font-stretch:normal;font-family:Sans;-inkscape-font-specification:anorexia"
           y="708.07648"
           x="87.14286"
           height="34.285725"
           width="45.000011"
           id="rect3223" /></flowRegion><flowPara
         style="font-style:normal;font-variant:normal;font-weight:normal;font-stretch:normal;font-family:URW Bookman L;-inkscape-font-specification:URW Bookman L"
         id="flowPara3225">OS</flowPara></flowRoot>    <text
       xml:space="preserve"
       style="font-size:20px;font-style:normal;font-weight:normal;line-height:125%;letter-spacing:0px;word-spacing:0px;fill:#000000;fill-opacity:1;stroke:none;font-family:Sans"
       x="169.28571"
       y="554.50507"
       id="text3249"
       sodipodi:linespacing="125%"><tspan
         sodipodi:role="line"
         id="tspan3251"
         x="169.28571"
         y="554.50507" /></text>
    <text
       xml:space="preserve"
       style="font-size:48px;font-style:normal;font-weight:normal;line-height:125%;letter-spacing:0px;word-spacing:0px;fill:#000000;fill-opacity:1;stroke:none;font-family:Sans"
       x="-806.11719"
       y="48.903442"
       id="text3253"
       sodipodi:linespacing="125%"
       transform="matrix(0,-1,1,0,0,0)"><tspan
         sodipodi:role="line"
         id="tspan3255"
         x="-806.11719"
         y="48.903442"
         style="font-size:24px">Dependency</tspan><tspan
         sodipodi:role="line"
         x="-806.11719"
         y="78.903442"
         style="font-size:24px"
         id="tspan3274" /></text>
    <path
       style="fill:#333333;fill-opacity:1;stroke:#000000;stroke-width:3;stroke-linejoin:miter;stroke-miterlimit:4;stroke-opacity:1;stroke-dasharray:none"
       d="M 640.9375 551.1875 L 628.6875 572.40625 L 639.21875 572.40625 L 639.21875 623.1875 L 639.21875 651.15625 L 642.625 651.15625 L 642.625 623.1875 L 642.625 572.40625 L 653.1875 572.40625 L 640.9375 551.1875 z M 639.21875 664.375 L 639.21875 764.28125 L 639.21875 815.0625 L 628.6875 815.0625 L 640.9375 836.28125 L 653.1875 815.0625 L 642.625 815.0625 L 642.625 764.28125 L 642.625 664.375 L 639.21875 664.375 z "
       id="path3257" />
    <text
       transform="matrix(0,-1,1,0,0,0)"
       sodipodi:linespacing="125%"
       id="text3284"
       y="615.599"
       x="-770.11719"
       style="font-size:48px;font-style:normal;font-weight:normal;line-height:125%;letter-spacing:0px;word-spacing:0px;fill:#000000;fill-opacity:1;stroke:none;font-family:Sans"
       xml:space="preserve"><tspan
         style="font-size:24px"
         y="615.599"
         x="-770.11719"
         id="tspan3286"
         sodipodi:role="line">Dependency</tspan><tspan
         id="tspan3288"
         style="font-size:24px"
         y="645.599"
         x="-770.11719"
         sodipodi:role="line" /></text>
  </g>
</svg>
